# xmcd
#
# Track frame offsets:
#	150
#	54694
#	72706
#	108570
#	125583
#	143885
#	171733
#	197891
#	219176
#
# Disc length: 3088 seconds
#
# Revision: 1
# Processed by: cddbd v1.5.2PL0 Copyright (c) Steve Scherf et al.
# Submitted via: EasyCDDAExtractor 7.0.5.4
#
DISCID=980c0e09
DTITLE=The Flying W Wranglers - With The Colorado Springs Philharmonic
DYEAR=2003
DGENRE=Country
TTITLE0=THE COWBOY'S OVERTURE
TTITLE1=A COWBOY HAS TO SING
TTITLE2=MEDLEY
TTITLE3=GHOST RIDERS  IN THE SKY
TTITLE4=RED RIVER VALLEY
TTITLE5=SATURDAY NIGHT YODEL
TTITLE6=THE MAN WHO SHOT LIBERTY VALANCE
TTITLE7=IF YOU WANNA BE  A  COWBOY
TTITLE8=COWPOKE
EXTD=
EXTT0=
EXTT1=
EXTT2=
EXTT3=
EXTT4=
EXTT5=
EXTT6=
EXTT7=
EXTT8=
PLAYORDER=
